<?xml version="1.0" encoding="utf-8"?>
<!-- Generator: Adobe Illustrator 22.0.0, SVG Export Plug-In . SVG Version: 6.00 Build 0)  -->
<!DOCTYPE svg PUBLIC "-//W3C//DTD SVG 1.1//EN" "http://www.w3.org/Graphics/SVG/1.1/DTD/svg11.dtd">
<svg version="1.1" id="Layer_1" xmlns="http://www.w3.org/2000/svg" xmlns:xlink="http://www.w3.org/1999/xlink" x="0px" y="0px"
	 viewBox="0 0 128 128" enable-background="new 0 0 128 128" xml:space="preserve">
<rect x="-264" y="27" fill="none" stroke="#231F20" stroke-width="10" stroke-linejoin="bevel" stroke-miterlimit="10" width="64" height="53"/>
<path fill="none" stroke="#231F20" stroke-width="10" stroke-linejoin="bevel" stroke-miterlimit="10" d="M-200,77
	c0,17.7-14.3,32-32,32s-32-14.3-32-32"/>
<line fill="none" stroke="#231F20" stroke-width="10" stroke-linejoin="bevel" stroke-miterlimit="10" x1="-280" y1="80" x2="-184" y2="80"/>
<polygon fill="none" stroke="#231F20" stroke-width="10" stroke-miterlimit="10" points="-280,26 -232,6 -184,26 -184,27 -280,27 
	"/>
<line fill="none" stroke="#231F20" stroke-width="10" stroke-linejoin="bevel" stroke-miterlimit="10" x1="-261" y1="90" x2="-278" y2="125"/>
<line fill="none" stroke="#231F20" stroke-width="10" stroke-linejoin="bevel" stroke-miterlimit="10" x1="-203" y1="90" x2="-186" y2="125"/>
<line fill="none" stroke="#231F20" stroke-width="10" stroke-linejoin="bevel" stroke-miterlimit="10" x1="-232" y1="77" x2="-232" y2="127"/>
<g>
	<path fill="#231F20" d="M-52,85h-64l-5-5V27l5-5h64l5,5v53L-52,85z M-111,75h54V32h-54V75z"/>
</g>
<g>
	<path fill="#231F20" d="M-84,114c-20.4,0-37-16.6-37-37h10c0,14.9,12.1,27,27,27s27-12.1,27-27h10C-47,97.4-63.6,114-84,114z"/>
</g>
<g>
	<rect x="-137" y="75" fill="#231F20" width="106" height="10"/>
</g>
<g>
	<path fill="#231F20" d="M-31,32h-106v-9.3l53-22.1l53,22.1V32z M-109.4,22h50.8L-84,11.4L-109.4,22z"/>
</g>
<g>
	<polygon fill="#231F20" points="-126,128 -137,128 -117.5,87.8 -108.5,92.2 	"/>
</g>
<g>
	<polygon fill="#231F20" points="-42,128 -59.5,92.2 -50.5,87.8 -31,128 	"/>
</g>
<g>
	<rect x="-89" y="77" fill="#231F20" width="10" height="51"/>
</g>
<path fill="#8CC55D" d="M117,32v-9.3L64,0.6L11,22.7V32h16v43H16l4,10h7c0,3,1.5,7,1.5,7L13,128h11l11.4-27.5
	c5.8,7,14.1,11.9,23.6,13.2V128h10v-14.4c9.4-1.3,17.8-6.1,23.6-13.2L104,128h11l-15-36c0,0,1-4,1-7h7l4-10h-11V32H117z M64,104
	c-12.1,0-20.6-8-24-19h48C84.6,96,76.1,104,64,104z M37,75V26c0,0,10-10.6,27-10.6S91,26,91,26v49H37z"/>
</svg>
