<svg id="Layer_1" data-name="Layer 1" xmlns="http://www.w3.org/2000/svg" viewBox="0 0 128 128"><defs><style>.cls-1{fill:#303541;}</style></defs><title>logo-blue</title><path class="cls-1" d="M117,32V22.67L64,.58,11,22.67V32H27V75H16l4,10h7a25.15,25.15,0,0,0,1.47,7L13,128H24l11.44-27.52A37,37,0,0,0,59,113.65V128H69V113.65a37,37,0,0,0,23.56-13.17L104,128h11L100,92a35.48,35.48,0,0,0,1-7h7l4-10H101V32ZM64,104c-12.1,0-20.58-8-24-19H88C84.58,96,76.1,104,64,104ZM37,75V26a39.73,39.73,0,0,1,54,0V75Z"/></svg>